<svg xmlns="http://www.w3.org/2000/svg" viewBox="0 0 512 512">
  <!-- Background -->
  <defs>
    <linearGradient id="bgGradient" x1="0%" y1="0%" x2="100%" y2="100%">
      <stop offset="0%" stop-color="#4b6cb7" />
      <stop offset="100%" stop-color="#182848" />
    </linearGradient>
    <linearGradient id="roadGradient" x1="0%" y1="0%" x2="100%" y2="0%">
      <stop offset="0%" stop-color="#10b981" />
      <stop offset="100%" stop-color="#059669" />
    </linearGradient>
    <linearGradient id="markersGradient" x1="0%" y1="0%" x2="100%" y2="0%">
      <stop offset="0%" stop-color="#f8fafc" />
      <stop offset="100%" stop-color="#e2e8f0" />
    </linearGradient>
    <filter id="glow" x="-20%" y="-20%" width="140%" height="140%">
      <feGaussianBlur stdDeviation="6" result="blur" />
      <feComposite in="SourceGraphic" in2="blur" operator="over" />
    </filter>
  </defs>
  
  <!-- Rounded square background -->
  <rect width="512" height="512" rx="80" fill="url(#bgGradient)" />
  
  <!-- Stack of layers (representing tech stacks) -->
  <g transform="translate(90, 110)">
    <!-- Layer 1 (bottom) -->
    <rect x="10" y="220" width="320" height="50" rx="10" fill="#6366f1" opacity="0.7" />
    
    <!-- Layer 2 -->
    <rect x="25" y="180" width="320" height="50" rx="10" fill="#8b5cf6" opacity="0.8" />
    
    <!-- Layer 3 -->
    <rect x="40" y="140" width="320" height="50" rx="10" fill="#ec4899" opacity="0.8" />
    
    <!-- Layer 4 (top) -->
    <rect x="55" y="100" width="320" height="50" rx="10" fill="#f97316" opacity="0.9" />
    
    <!-- Road/path going through the stacks -->
    <path d="M80 340 Q 230 60, 350 50" stroke="url(#roadGradient)" stroke-width="22" 
          stroke-linecap="round" fill="none" filter="url(#glow)" />
    
    <!-- Milestone markers -->
    <circle cx="140" cy="250" r="15" fill="url(#markersGradient)" stroke="#10b981" stroke-width="4" />
    <circle cx="200" cy="180" r="15" fill="url(#markersGradient)" stroke="#10b981" stroke-width="4" />
    <circle cx="260" cy="120" r="15" fill="url(#markersGradient)" stroke="#10b981" stroke-width="4" />
    <circle cx="320" cy="80" r="15" fill="url(#markersGradient)" stroke="#10b981" stroke-width="4" />
    
    <!-- Checkmark in the last milestone -->
    <path d="M310 80 L318 90 L330 70" stroke="#10b981" stroke-width="5" fill="none" stroke-linecap="round" stroke-linejoin="round" />
  </g>
</svg>
